<svg xmlns="http://www.w3.org/2000/svg" width="410" height="404" viewBox="0 0 410 404" fill="none"><path d="M399.641 59.5246L215.643 388.545C211.844 395.338 202.084 395.43 198.168 388.718L10.5817 59.5563C6.38087 52.2757 12.6802 43.4493 20.746 44.7586L205.223 75.6677C206.398 75.8615 207.601 75.8593 208.776 75.6611L389.119 44.8058C397.152 43.4745 403.486 52.2117 399.356 59.5136L399.641 59.5246Z" fill="url(#paint0_linear)"/><path d="M292.965 1.57441L156.789 28.2556C155.486 28.5134 154.373 29.3397 153.794 30.5431L73.2541 199.132C72.6193 200.446 72.7293 201.996 73.5434 203.203C74.3574 204.409 75.7618 205.121 77.2479 205.121H137.367C138.275 205.118 139.148 204.828 139.86 204.299C140.572 203.769 141.083 203.028 141.313 202.18L162.526 126.275C162.99 124.69 164.364 123.568 166.005 123.545L220.514 122.762C222.133 122.739 223.543 123.829 224.024 125.403L241.295 181.634C241.557 182.493 242.13 183.223 242.914 183.695C243.699 184.168 244.642 184.352 245.558 184.215L285.414 178.382C287.053 178.143 288.37 176.974 288.761 175.369L315.79 66.0531C316.184 64.426 315.354 62.7386 313.793 61.9406L294.607 52.3543C293.38 51.7247 292.862 50.2792 293.325 48.9716L299.597 31.1266C300.56 28.403 298.449 25.5016 295.541 25.8261Z" fill="url(#paint1_linear)"/><defs><linearGradient id="paint0_linear" x1="6.00017" y1="32.9999" x2="235" y2="344" gradientUnits="userSpaceOnUse"><stop stop-color="#41D1FF"/><stop offset="1" stop-color="#BD34FE"/></linearGradient><linearGradient id="paint1_linear" x1="194.651" y1="8.81818" x2="236.076" y2="292.989" gradientUnits="userSpaceOnUse"><stop stop-color="#FFEA83"/><stop offset="0.0833333" stop-color="#FFDD35"/><stop offset="1" stop-color="#FFA800"/></linearGradient></defs></svg>
